<svg version="1.1" xmlns="http://www.w3.org/2000/svg" viewBox="-311.29600019454955 -1049.6000244140625 3495.731298828125 3374.33616027832"><desc>Created with Snap</desc><defs></defs><g><g transform="matrix(56.6016,0,0,56.6016,530.944,262.8864)"><g transform="translate(0,-1020.3622)"><path style="color: rgb(0, 0, 0); font: medium sans-serif; text-indent: 0px; text-align: start; text-decoration: none solid rgb(0, 0, 0); letter-spacing: normal; word-spacing: normal; text-transform: none; direction: ltr; writing-mode: lr-tb; baseline-shift: baseline; text-anchor: start; white-space: normal; clip-rule: nonzero; display: inline; overflow: visible; visibility: visible; opacity: 1; isolation: auto; mix-blend-mode: normal; color-interpolation: srgb; color-interpolation-filters: linearrgb; fill-opacity: 1; fill-rule: evenodd; stroke: none; stroke-width: 1px; stroke-linecap: butt; stroke-linejoin: miter; stroke-miterlimit: 4; stroke-dasharray: none; stroke-dashoffset: 0; stroke-opacity: 1; color-rendering: auto; image-rendering: auto; shape-rendering: auto; text-rendering: auto;" d="M 15 1 C 12.796783 1 11 2.7968 11 5 C 11 5.6546295 11.174294 6.2621942 11.455078 6.8085938 L 5.1347656 12.226562 C 4.7841998 12.082202 4.4012682 12 4 12 C 2.3490681 12 1 13.3491 1 15 C 1 16.651 2.3490681 18 4 18 C 4.3223201 18 4.6284069 17.934891 4.9199219 17.839844 L 10.457031 27.068359 C 10.170848 27.474845 10 27.968062 10 28.5 C 10 29.8748 11.12521 31 12.5 31 C 13.747095 31 14.780132 30.071238 14.962891 28.873047 L 25.037109 25.515625 C 25.449884 25.816605 25.953124 26 26.5 26 C 27.87479 26 29 24.8748 29 23.5 C 29 22.943704 28.810453 22.432176 28.5 22.015625 L 29.455078 9.6035156 C 30.370789 9.0885994 31 8.1207185 31 7 C 31 5.3491 29.650932 4 28 4 C 27.134284 4 26.357302 4.3758715 25.808594 4.9667969 L 18.839844 3.9453125 C 18.372859 2.2544815 16.835947 1 15 1 z M 15 2 C 16.662777 2 18 3.3373 18 5 C 18 6.6628 16.662777 8 15 8 C 13.337223 8 12 6.6628 12 5 C 12 3.3373 13.337223 2 15 2 z M 18.998047 4.9785156 L 25.21875 5.8925781 C 25.081111 6.2360264 25 6.6086946 25 7 C 25 7.9000535 25.408807 8.7010389 26.041016 9.2519531 L 19.875 15.417969 C 19.479439 15.155095 19.007772 15 18.5 15 C 17.509241 15 16.655742 15.588652 16.251953 16.429688 L 6.9414062 15.583984 C 6.9792633 15.39441 7 15.200338 7 15 C 7 14.124925 6.6138374 13.342483 6.0117188 12.792969 L 12.021484 7.640625 C 12.755152 8.4670166 13.812384 9 15 9 C 17.203217 9 19 7.2032 19 5 C 19 4.9926553 18.998087 4.9858513 18.998047 4.9785156 z M 28 5 C 29.110492 5 30 5.8895 30 7 C 30 8.1105 29.110492 9 28 9 C 26.889508 9 26 8.1105 26 7 C 26 5.8895 26.889508 5 28 5 z M 26.917969 9.7890625 C 27.254532 9.9204133 27.618193 10 28 10 C 28.145621 10 28.285576 9.9753505 28.425781 9.9550781 L 27.556641 21.244141 C 27.234205 21.091786 26.878567 21 26.5 21 C 25.967136 21 25.475247 21.171889 25.068359 21.458984 L 20.626953 18.792969 C 20.859124 18.413878 21 17.974607 21 17.5 C 21 16.992527 20.846572 16.518465 20.583984 16.123047 L 26.917969 9.7890625 z M 4 13 C 5.1104918 13 6 13.8895 6 15 C 6 16.1105 5.1104918 17 4 17 C 2.8895082 17 2 16.1105 2 15 C 2 13.8895 2.8895082 13 4 13 z M 18.5 16 C 19.334349 16 20 16.6657 20 17.5 C 20 18.3344 19.334349 19 18.5 19 C 17.665651 19 17 18.3344 17 17.5 C 17 16.6657 17.665651 16 18.5 16 z M 6.5527344 16.552734 L 16.009766 17.412109 C 16.008703 17.441867 16 17.469995 16 17.5 C 16 18.8748 17.12521 20 18.5 20 C 19.031925 20 19.523206 19.827189 19.929688 19.541016 L 24.371094 22.207031 C 24.13977 22.585631 24 23.026333 24 23.5 C 24 23.937372 24.122695 24.342517 24.322266 24.701172 L 14.900391 27.841797 C 14.608509 26.785121 13.646095 26 12.5 26 C 12.025542 26 11.586046 26.141008 11.207031 26.373047 L 5.8085938 17.375 C 6.1047653 17.148637 6.3574473 16.871712 6.5527344 16.552734 z M 26.5 22 C 27.334349 22 28 22.6657 28 23.5 C 28 24.3344 27.334349 25 26.5 25 C 25.665651 25 25 24.3344 25 23.5 C 25 22.6657 25.665651 22 26.5 22 z M 12.5 27 C 13.334349 27 14 27.6657 14 28.5 C 14 29.3344 13.334349 30 12.5 30 C 11.665651 30 11 29.3344 11 28.5 C 11 27.6657 11.665651 27 12.5 27 z " transform="translate(0,1020.3622)" fill="#0560af"></path></g><desc>Created with Snap</desc><defs></defs></g><g><g transform="matrix(1.024,0,0,-1.024,0,0)"><path d="M669 625Q672 625 672 619Q672 613 669 613Q635 613 610 595Q585 577 568 534L355 1Q354 -3 344 -3Q336 -3 333 1L84 542Q67 581 48 597Q29 613 -1 613Q-4 613 -4 619Q-4 625 -1 625L37 624Q65 622 82 622Q122 622 168 624L209 625Q212 625 212 619Q212 613 209 613Q178 613 162 605Q147 597 147 578Q147 566 156 546L365 88L545 539Q553 560 553 572Q553 593 534 603Q515 613 475 613Q472 613 472 619Q472 625 475 625L518 624Q552 622 580 622Q601 622 627 624L669 625ZM811 508Q811 469 830 440Q849 411 876 391Q903 372 952 342Q1004 311 1033 290Q1062 269 1082 236Q1103 204 1103 159Q1103 111 1079 72Q1055 33 1008 10Q962 -12 897 -12Q820 -12 756 23Q751 26 749 30Q748 34 747 42L734 178Q733 182 738 183Q744 184 745 180Q761 108 804 56Q848 4 920 4Q970 4 1004 31Q1039 59 1039 119Q1039 164 1019 197Q999 230 970 251Q942 273 893 302Q845 331 817 352Q790 373 771 405Q752 437 752 480Q752 530 778 565Q805 601 847 618Q890 636 938 636Q997 636 1055 612Q1070 607 1070 595L1077 480Q1077 476 1072 476Q1067 476 1066 480Q1058 532 1023 576Q988 621 922 621Q866 621 838 588Q811 556 811 508ZM1634 12Q1637 12 1637 6Q1637 0 1634 0Q1611 0 1597 1L1543 2L1489 1Q1475 0 1452 0Q1449 0 1449 6Q1449 12 1452 12Q1479 12 1492 17Q1505 23 1510 37Q1515 52 1515 81L1515 240Q1515 299 1492 327Q1470 356 1423 356Q1392 356 1360 339Q1328 323 1302 294L1302 81Q1302 52 1307 37Q1312 23 1325 17Q1338 12 1365 12Q1368 12 1368 6Q1368 0 1365 0Q1342 0 1328 1L1274 2L1220 1Q1206 0 1183 0Q1180 0 1180 6Q1180 12 1183 12Q1210 12 1223 17Q1236 23 1241 37Q1246 52 1246 81L1246 598Q1246 634 1239 650Q1232 666 1214 666Q1199 666 1168 652L1166 652Q1163 652 1161 657Q1159 662 1163 663L1290 725L1293 725Q1297 725 1299 722Q1302 720 1302 717L1302 311Q1340 355 1377 375Q1415 396 1456 396Q1511 396 1541 365Q1571 334 1571 275L1571 81Q1571 52 1576 37Q1581 23 1594 17Q1607 12 1634 12ZM2069 54L2071 54Q2075 54 2076 49Q2077 45 2073 43L1970 -6Q1966 -8 1962 -8Q1949 -8 1939 9Q1929 26 1926 56L1864 23Q1833 7 1813 0Q1793 -7 1774 -7Q1743 -7 1726 9Q1710 26 1710 51Q1710 78 1730 94Q1751 111 1804 129L1925 172L1925 255Q1925 321 1908 347Q1891 374 1861 374Q1827 374 1808 350Q1789 326 1785 292Q1781 254 1748 254Q1732 254 1723 262Q1714 270 1714 284Q1714 307 1744 333Q1774 359 1816 377Q1859 395 1893 395Q1933 395 1957 367Q1981 340 1981 285L1981 108Q1981 73 1990 57Q1999 41 2020 41Q2039 41 2069 54ZM1864 39L1925 70L1925 76L1925 160L1822 121Q1799 112 1789 101Q1780 90 1780 73Q1780 52 1792 40Q1804 29 1823 29Q1842 29 1864 39ZM2350 395Q2372 395 2392 383Q2412 371 2412 354Q2412 341 2403 332Q2395 323 2379 323Q2370 323 2363 326Q2357 330 2348 337Q2339 345 2331 349Q2323 353 2312 353Q2299 353 2284 342Q2270 332 2239 296L2239 81Q2239 51 2246 37Q2254 23 2274 17Q2294 12 2336 12Q2340 12 2340 6Q2340 0 2336 0Q2304 0 2285 1L2211 2L2156 1Q2143 0 2120 0Q2117 0 2117 6Q2117 12 2120 12Q2147 12 2160 17Q2173 23 2177 37Q2182 51 2182 81L2182 279Q2182 313 2174 328Q2166 343 2147 343Q2131 343 2093 328L2091 328Q2087 328 2085 332Q2084 337 2088 339L2204 394Q2206 395 2210 395Q2219 395 2229 372Q2239 349 2239 313L2239 312Q2280 360 2304 377Q2328 395 2350 395ZM2802 56L2803 56Q2806 56 2808 52Q2811 49 2809 46Q2741 -12 2663 -12Q2604 -12 2561 15Q2518 42 2496 85Q2475 129 2475 180Q2475 240 2503 289Q2532 338 2581 366Q2630 395 2690 395Q2744 395 2774 368Q2804 342 2804 296Q2804 284 2801 278Q2799 273 2792 273L2546 271Q2541 244 2541 219Q2541 132 2583 77Q2625 23 2699 23Q2756 23 2802 56ZM2656 375Q2615 375 2587 351Q2560 328 2549 285L2735 289Q2735 330 2713 352Q2692 375 2656 375Z" fill="#0560af" style=""></path></g></g></g></svg>